HIERARCHY
ROOT root
{
	OFFSET	0	13.1	24.9
	CHANNELS 6  Xposition Yposition Zposition Xrotation Yrotation Zrotation
	JOINT spine_1
	{
		OFFSET	0	9.99999	0
		CHANNELS 3  Xrotation Yrotation Zrotation
		JOINT spine_2
		{
			OFFSET	0	112	-10
			CHANNELS 3  Xrotation Yrotation Zrotation
			JOINT spine_3
			{
				OFFSET	0	206.5	19.3
				CHANNELS 3  Xrotation Yrotation Zrotation
				JOINT spine_4
				{
					OFFSET	0	110.4	14.6
					CHANNELS 3  Xrotation Yrotation Zrotation
					JOINT neck_1
					{
						OFFSET	0	71.8	-50.3
						CHANNELS 3  Xrotation Yrotation Zrotation
						JOINT neck_2
						{
							OFFSET	0	86.2	-25.8
							CHANNELS 3  Xrotation Yrotation Zrotation
							JOINT head_ee
							{
								OFFSET	0	179.8	-8.7
								CHANNELS 3  Xrotation Yrotation Zrotation
								End Site
								{
									OFFSET	1	0	0
								}
							}
						}
					}
					JOINT left_clavicle
					{
						OFFSET	-43.2	22.4	-70.8
						CHANNELS 3  Xrotation Yrotation Zrotation
						JOINT left_shoulder
						{
							OFFSET	-93.9	-5.79999	48.7
							CHANNELS 3  Xrotation Yrotation Zrotation
							JOINT left_elbow
							{
								OFFSET	-291.4	-30.8	15.2
								CHANNELS 3  Xrotation Yrotation Zrotation
								JOINT left_lowarm_twist
								{
									OFFSET	-110.7	-3.89999	13.6
									CHANNELS 3  Xrotation Yrotation Zrotation
									JOINT left_hand
									{
										OFFSET	-110.7	-3.89999	13.6
										CHANNELS 3  Xrotation Yrotation Zrotation
										JOINT left_ee
										{
											OFFSET	-80.8	-5.10001	12.1
											CHANNELS 3  Xrotation Yrotation Zrotation
											End Site
											{
												OFFSET	1	0	0
											}
										}
									}
								}
							}
						}
					}
					JOINT right_clavicle
					{
						OFFSET	43.2	22.4	-70.8
						CHANNELS 3  Xrotation Yrotation Zrotation
						JOINT right_shoulder
						{
							OFFSET	93.9	-5.79999	48.7
							CHANNELS 3  Xrotation Yrotation Zrotation
							JOINT right_elbow
							{
								OFFSET	291.4	-30.8	15.2
								CHANNELS 3  Xrotation Yrotation Zrotation
								JOINT right_lowarm_twist
								{
									OFFSET	110.7	-3.89999	13.6
									CHANNELS 3  Xrotation Yrotation Zrotation
									JOINT right_hand
									{
										OFFSET	110.7	-3.89999	13.6
										CHANNELS 3  Xrotation Yrotation Zrotation
										JOINT right_ee
										{
											OFFSET	80.8	-5.10001	12.1
											CHANNELS 3  Xrotation Yrotation Zrotation
											End Site
											{
												OFFSET	1	0	0
											}
										}
									}
								}
							}
						}
					}
				}
			}
		}
	}
	JOINT left_hip
	{
		OFFSET	-82.8	-127.5	0.300001
		CHANNELS 3  Xrotation Yrotation Zrotation
		JOINT left_knee
		{
			OFFSET	-28.2	-396.7	2.2
			CHANNELS 3  Xrotation Yrotation Zrotation
			JOINT left_ankle
			{
				OFFSET	-11.7	-411.3	35.4
				CHANNELS 3  Xrotation Yrotation Zrotation
				JOINT left_toes
				{
					OFFSET	0	-60	-88.6
					CHANNELS 3  Xrotation Yrotation Zrotation
					JOINT left_foot_ee
					{
						OFFSET	-22.5	-16.5	-42.2
						CHANNELS 3  Xrotation Yrotation Zrotation
						End Site
						{
							OFFSET	1	0	0
						}
					}
				}
			}
		}
	}
	JOINT right_hip
	{
		OFFSET	82.8	-127.5	0.300001
		CHANNELS 3  Xrotation Yrotation Zrotation
		JOINT right_knee
		{
			OFFSET	28.2	-396.7	2.2
			CHANNELS 3  Xrotation Yrotation Zrotation
			JOINT right_ankle
			{
				OFFSET	11.7	-411.3	35.4
				CHANNELS 3  Xrotation Yrotation Zrotation
				JOINT right_toes
				{
					OFFSET	0	-60	-88.6
					CHANNELS 3  Xrotation Yrotation Zrotation
					JOINT right_foot_ee
					{
						OFFSET	22.5	-16.5	-42.2
						CHANNELS 3  Xrotation Yrotation Zrotation
						End Site
						{
							OFFSET	1	0	0
						}
					}
				}
			}
		}
	}
}
MOTION
Frames: 10
Frame Time: 0.02
2504.1 735.152 -673.175 134.344 -68.1387 134.893 -4.49085 -0.00627302 0.0201586 -4.49085 -0.00754305 0.0197186 -4.49085 -0.0128689 0.0167366 -4.49085 -0.0100642 0.0185589 -7.86118 3.47919 4.61375 -7.80514 3.21393 5.32312 -0.0 0.0 -0.0 3.59906 -9.14152 6.33647 5.06879 -7.70832 55.4624 1.70172 -40.1269 0.621549 -67.1716 -6.18571 5.26792 1.2877 -23.435 -1.50147 -0.0 0.0 -0.0 3.81706 26.3704 -5.25461 -19.3682 32.0247 -67.9713 0.477442 13.3068 -0.0556931 -3.04374 0.117138 -0.370949 2.945 -28.6389 -28.4538 0.0 0.0 0.0 -18.5326 9.75118 7.66319 -6.02134 0.20067 0.901887 23.7155 13.7986 -3.20437 -32.3305 0.0 0.0 -0.0 0.0 -0.0 21.975 19.7958 -6.24228 -63.0306 2.53597 -8.85063 -22.7728 -22.2729 -3.52435 -40.1667 0.0 0.0 0.0 0.0 0.0 
2517.07 734.802 -671.884 137.475 -67.8869 138.416 -4.35893 0.0123404 -0.0997869 -4.35892 0.0186651 -0.0987994 -4.35895 0.045944 -0.0894364 -4.35896 0.0312426 -0.0955699 -7.41995 4.37968 5.44687 -7.34232 4.2482 6.33263 -0.0 0.0 -0.0 4.19611 -8.12074 7.63961 7.32364 -3.95094 53.8115 1.95677 -44.1028 0.792692 -67.6124 -6.24176 5.27445 0.851498 -21.6898 -3.58525 -0.0 0.0 -0.0 3.24608 24.6314 -4.19526 -18.2884 33.3137 -68.3196 0.476124 13.2713 -0.0553901 -4.3291 0.172502 -0.525663 3.24193 -28.9335 -30.4074 0.0 0.0 0.0 -19.28 11.9923 7.74851 -4.14485 0.148327 0.618677 23.8 16.5568 -3.23732 -35.0904 0.0 0.0 -0.0 0.0 -0.0 22.841 19.7134 -7.22012 -60.7868 2.28554 -8.61155 -24.2271 -21.8879 -3.74376 -40.11 0.0 0.0 0.0 0.0 0.0 
2543.21 738.418 -667.54 139.966 -67.8353 141.041 -4.28057 0.00688048 -0.0324026 -4.28057 0.0089284 -0.0318991 -4.28058 0.0175781 -0.0280763 -4.28058 0.0129233 -0.0305001 -6.79683 4.16422 6.03917 -6.69927 3.34077 6.87286 -0.0 0.0 -0.0 3.85834 -6.83862 7.03274 7.65931 -4.4575 53.1797 2.17489 -47.127 0.948627 -67.4842 -6.22545 5.27259 0.623094 -22.88 -5.60668 -0.0 0.0 -0.0 4.35257 24.4758 -6.61052 -21.0229 34.0604 -67.7791 0.470677 13.1248 -0.0541464 -4.60849 0.184995 -0.559127 3.37098 -28.3053 -31.164 0.0 0.0 0.0 -20.3494 12.3655 7.89202 -3.01658 0.112396 0.449251 27.2423 17.8881 -3.65876 -33.9563 0.0 0.0 -0.0 0.0 -0.0 24.0931 18.8722 -9.17115 -59.2668 2.12133 -8.44417 -24.118 -20.2941 -3.70408 -39.5997 0.0 0.0 0.0 0.0 0.0 
2560.51 736.891 -665.376 143.919 -67.2812 145.495 -4.08449 0.0444381 -0.096534 -4.08449 0.0504907 -0.0935106 -4.08457 0.0745974 -0.0756887 -4.08457 0.0617076 -0.0865201 -6.51622 4.80686 6.68282 -6.39721 4.02438 7.64033 -0.0 0.0 -0.0 4.29004 -6.26185 7.94924 9.10207 -2.85656 51.6458 2.33792 -49.1837 1.0701 -67.6702 -6.24912 5.27527 0.517964 -23.7652 -6.67881 -0.0 0.0 -0.0 4.26674 23.7464 -6.49686 -21.3265 34.4841 -67.5605 0.497545 13.8459 -0.060412 -4.81571 0.194366 -0.583909 3.54354 -28.0289 -32.2774 0.0 0.0 0.0 -21.1331 12.6472 7.98398 -1.5848 0.0620023 0.235301 28.4212 18.2338 -3.79851 -34.3926 0.0 0.0 -0.0 0.0 -0.0 24.6981 18.4803 -9.22172 -57.9729 1.98512 -8.29834 -23.8885 -19.7594 -3.66193 -39.58 0.0 0.0 0.0 0.0 0.0 
2582.44 730.475 -667.779 145.467 -66.5174 147.256 -3.8782 0.00658319 -0.147037 -3.87819 0.0159262 -0.14632 -3.87822 0.0556666 -0.136252 -3.87824 0.0334496 -0.143333 -6.08414 4.97381 6.85821 -5.9588 4.14098 7.84479 -0.0 0.0 -0.0 4.54514 -5.64377 8.50364 10.0874 -1.20273 50.472 2.41375 -50.0857 1.12788 -67.58 -6.23763 5.27398 0.416649 -23.8845 -7.39449 -0.0 0.0 -0.0 4.5228 23.0198 -7.12321 -22.5952 34.3966 -66.6899 0.502292 13.9728 -0.0615531 -4.93048 0.199596 -0.59762 3.65611 -28.0767 -33.0457 0.0 0.0 0.0 -21.9125 13.1039 8.07109 -3.59596 0.131264 0.536168 29.6441 20.3286 -3.96968 -34.7454 0.0 0.0 -0.0 0.0 -0.0 27.8415 18.6813 -9.19393 -47.8914 1.04352 -7.06542 -24.2129 -19.2348 -3.70515 -40.0298 0.0 0.0 0.0 0.0 0.0 
2605.87 731.43 -675.501 146.374 -65.6896 148.252 -3.76038 -0.0204749 -0.297789 -3.76033 -0.00148438 -0.298488 -3.76025 0.0803113 -0.287485 -3.76037 0.0339007 -0.296561 -6.50316 4.36326 5.05125 -6.43628 4.39587 5.91825 -0.0 0.0 -0.0 4.53504 -4.58735 8.54036 10.3873 -0.555119 51.168 2.53859 -51.4998 1.22462 -67.0 -6.1639 5.26526 0.233991 -23.8951 -8.59914 -0.0 0.0 -0.0 4.16448 22.709 -6.37684 -22.8774 33.5857 -66.6106 0.51432 14.2938 -0.0644902 -4.66054 0.18734 -0.565355 3.8821 -26.8369 -34.453 0.0 0.0 0.0 -22.6617 12.4469 9.25932 -5.86074 0.196554 0.877585 27.0664 23.5188 -3.72998 -32.8187 0.0 0.0 -0.0 0.0 -0.0 24.5339 19.5862 -8.58327 -32.8132 0.0739279 -4.96698 -23.1704 -17.7736 -3.52984 -40.1112 0.0 0.0 0.0 0.0 0.0 
2635.88 732.007 -675.354 148.235 -65.4657 149.835 -3.43551 -0.0505602 -0.349887 -3.43544 -0.0281937 -0.352395 -3.43517 0.0674168 -0.347033 -3.43534 0.0117637 -0.353325 -6.61682 4.40906 4.81059 -6.55661 4.66982 5.68802 -0.0 0.0 -0.0 4.7622 -4.29339 9.01296 11.4837 0.963181 52.5144 2.44196 -50.4128 1.14957 -67.1958 -6.18878 5.26829 -0.0587052 -19.7323 -8.78721 -0.0 0.0 -0.0 3.76204 21.0103 -5.66992 -23.477 33.479 -66.0008 0.528665 14.6755 -0.0680783 -4.55838 0.182742 -0.55313 4.15839 -26.3338 -36.3711 0.0 0.0 0.0 -25.313 9.96588 10.2078 -3.66092 0.133325 0.545923 25.9132 24.8647 -3.61791 -32.0349 0.0 0.0 -0.0 0.0 -0.0 22.335 20.9579 -6.78001 -21.7751 -0.270325 -3.31055 -18.741 -11.4612 -2.81924 -38.3563 0.0 0.0 0.0 0.0 0.0 
2653.15 727.921 -677.659 147.344 -66.0695 148.35 -3.26481 -0.0900005 -0.289153 -3.26477 -0.0714186 -0.294294 -3.26432 0.00928114 -0.302694 -3.26445 -0.0386399 -0.300361 -8.39631 3.91122 4.57355 -8.34305 4.10416 5.38678 -0.0 0.0 -0.0 4.55484 -4.01505 8.60989 12.7795 1.30324 53.2297 2.45806 -50.5975 1.16199 -66.7362 -6.13038 5.26104 -0.165701 -18.2932 -8.89924 -0.0 0.0 -0.0 3.79997 21.7555 -5.68041 -20.7412 31.3896 -68.4962 0.348269 9.78865 -0.0298226 -4.12682 0.163559 -0.501397 4.19155 -24.6905 -36.404 0.0 0.0 0.0 -26.1784 7.1702 11.3706 -3.49291 0.127973 0.520695 22.2372 27.7174 -3.21265 -30.0258 0.0 0.0 -0.0 0.0 -0.0 21.7473 22.4926 -6.10652 -14.3416 -0.320119 -2.17188 -17.2897 -10.6459 -2.59739 -34.741 0.0 0.0 0.0 0.0 0.0 
2677.54 724.595 -675.135 147.773 -66.3094 147.755 -3.00522 -0.0968153 -0.194359 -3.00521 -0.0842516 -0.200125 -3.00488 -0.0290684 -0.215182 -3.00493 -0.0626876 -0.207891 -9.83661 4.01358 5.31925 -9.76382 3.93734 6.17389 -0.0 0.0 -0.0 4.27904 -3.38117 8.09097 13.8703 2.14014 54.7829 2.34078 -49.2184 1.07226 -67.0888 -6.17518 5.26664 0.0796963 -14.1415 -5.48199 -0.0 0.0 -0.0 3.72432 21.5046 -5.54112 -19.0488 29.4166 -70.7116 0.252063 7.11754 -0.0156763 -2.29461 0.0864795 -0.280227 4.35093 -23.2209 -37.3902 0.0 0.0 0.0 -28.525 3.6203 12.7935 -0.228523 0.00934219 0.0338248 21.7339 27.0173 -3.13244 -29.1364 0.0 0.0 -0.0 0.0 -0.0 21.4637 23.827 -5.10047 -8.66322 -0.258577 -1.30313 -12.6281 -8.98652 -1.88864 -29.7243 0.0 0.0 0.0 0.0 0.0 
2697.32 720.001 -672.665 148.823 -66.2891 148.583 -2.96125 -0.115162 -0.224671 -2.96122 -0.100632 -0.231544 -2.96077 -0.0368685 -0.24976 -2.96085 -0.0758507 -0.240803 -10.64 3.82521 4.92651 -10.5791 3.93576 5.76484 -0.0 0.0 -0.0 4.28457 -2.69579 8.13804 14.5544 2.74255 55.6821 2.36132 -49.4657 1.08785 -66.4091 -6.08886 5.2556 -0.0664306 -12.6138 -5.8178 -0.0 0.0 -0.0 3.56832 22.6853 -5.08872 -18.0352 27.9276 -71.8439 0.194629 5.5072 -0.00936102 -1.34895 0.0494783 -0.165154 4.4999 -22.1399 -38.3736 0.0 0.0 0.0 -29.2897 1.21777 12.7509 -0.374166 0.0152261 0.0554009 20.1574 27.1756 -2.92728 -28.6229 0.0 0.0 -0.0 0.0 -0.0 20.8701 24.6481 -4.58312 -2.0806 -0.0800583 -0.309248 -11.4684 -6.68023 -1.714 -26.0673 0.0 0.0 0.0 0.0 0.0 
